<svg width="361" height="100" viewBox="0 0 361 100" fill="none" xmlns="http://www.w3.org/2000/svg">
<g clip-path="url(#clip0_129_5273)">
<path d="M34.561 65.8017H10.6279C3.52912 65.8017 0 62.1123 0 54.7132V11.271C0 3.75025 3.50884 0 10.5468 0H18.9842C26.0222 0 29.531 3.75025 29.531 11.271V57.835H34.5813V65.8017H34.561ZM20.7082 57.835V11.8184C20.7082 9.24387 19.3899 7.96675 16.7735 7.96675H12.6562C10.0803 7.96675 8.80252 9.24387 8.80252 11.8184V53.9834C8.80252 56.5579 10.1209 57.835 12.7373 57.835H20.7082Z" fill="#FFCE28"/>
<path d="M76.4642 0V53.3347C76.4642 61.646 72.9148 65.8017 65.8363 65.8017H58.413C51.375 65.8017 47.8662 61.6258 47.8662 53.2536V0H56.6687V53.5374C56.6687 56.416 57.9465 57.8553 60.5224 57.8553H64.092C66.4854 57.8553 67.6617 56.416 67.6617 53.5374V0H76.4642Z" fill="#FFCE28"/>
<path d="M102.223 65.8017H93.4202V11.271C93.4202 3.75025 96.929 0 103.967 0H110.579C117.617 0 121.126 3.75025 121.126 11.271V65.8017H112.323V41.6988H102.243V65.8017H102.223ZM112.303 33.7117V11.8184C112.303 9.24387 111.025 7.96675 108.449 7.96675H106.076C103.5 7.96675 102.223 9.24387 102.223 11.8184V33.732H112.303V33.7117Z" fill="#FFCE28"/>
<path d="M156.336 31.8062V0H165.138V65.8017H156.336V52.686L146.884 22.7042V65.7815H138.082V0H146.884L156.336 31.8062Z" fill="#FFCE28"/>
<path d="M196.596 7.96675V65.8017H187.794V7.96675H179.356V0H205.034V7.96675H196.596Z" fill="#FFCE28"/>
<path d="M219.252 65.8017V0H228.054V65.8017H219.252Z" fill="#FFCE28"/>
<path d="M279.592 65.8017H255.658C248.56 65.8017 245.031 62.1123 245.031 54.7132V11.271C245.031 3.75025 248.539 0 255.577 0H264.015C271.053 0 274.562 3.75025 274.562 11.271V57.835H279.612V65.8017H279.592ZM265.739 57.835V11.8184C265.739 9.24387 264.42 7.96675 261.804 7.96675H257.687C255.111 7.96675 253.833 9.24387 253.833 11.8184V53.9834C253.833 56.5579 255.151 57.835 257.768 57.835H265.739Z" fill="#FFCE28"/>
<path d="M321.495 0V53.3347C321.495 61.646 317.945 65.8017 310.867 65.8017H303.444C296.406 65.8017 292.897 61.6258 292.897 53.2536V0H301.699V53.5374C301.699 56.416 302.977 57.8553 305.553 57.8553H309.123C311.516 57.8553 312.692 56.416 312.692 53.5374V0H321.495Z" fill="#FFCE28"/>
<path d="M338.917 65.8017V0H360.741V7.96675H347.72V27.9546H359.281V35.9213H347.72V57.835H360.741V65.8017H338.917Z" fill="#FFCE28"/>
<path d="M48.5151 85.749H52.5919L55.8776 92.0332L59.1025 85.749H63.2401V99.9797H60.2991V89.9047H60.2586L57.0945 96.3916H54.681L51.5372 90.0061H51.4966V99.9797H48.5151V85.749Z" fill="#FFCE28"/>
<path d="M72.9349 94.3037V97.3241H80.9667V99.9595H69.8926V85.6882H80.2771V88.3235H72.9146V91.5265H79.4253V94.3037H72.9146H72.9349Z" fill="#FFCE28"/>
<path d="M90.7834 88.3843H86.2605V85.7693H98.4096V88.4046H93.9272V99.9797H90.8037V88.3843H90.7834Z" fill="#FFCE28"/>
<path d="M101.371 100L107.841 85.7896H110.985L117.353 100H114.331L112.932 96.8579H105.732L104.231 100H101.371ZM109.443 88.4654L107.05 93.959H111.776L109.463 88.4654H109.443Z" fill="#FFCE28"/>
<path d="M122.809 85.749H128.955C132.646 85.749 135.425 88.0803 135.425 92.7833C135.425 96.9187 133.315 99.9797 128.955 99.9797H122.809V85.749ZM125.933 97.3444H128.732C130.537 97.3444 132.281 96.2295 132.281 93.0874C132.281 90.2088 131.267 88.3843 128.164 88.3843H125.933V97.3647V97.3444Z" fill="#FFCE28"/>
<path d="M140.232 100L146.702 85.7896H149.846L156.214 100H153.172L151.772 96.8579H144.572L143.071 100H140.211H140.232ZM148.304 88.4654L145.911 93.959H150.637L148.324 88.4654H148.304Z" fill="#FFCE28"/>
<path d="M163.82 88.3843H159.297V85.7693H171.446V88.4046H166.964V99.9797H163.84V88.3843H163.82Z" fill="#FFCE28"/>
<path d="M174.387 100L180.857 85.7896H184.001L190.37 100H187.348L185.948 96.8579H178.748L177.247 100H174.387ZM182.46 88.4654L180.066 93.959H184.792L182.48 88.4654H182.46Z" fill="#FFCE28"/>
<path d="M205.865 85.749H212.295C215.864 85.749 217.223 87.9992 217.223 90.3101C217.223 92.6211 215.864 94.8713 212.295 94.8713H209.009V99.9797H205.886V85.749H205.865ZM208.989 92.4387H211.423C212.863 92.4387 214.181 92.1143 214.181 90.3101C214.181 88.506 212.863 88.1816 211.423 88.1816H208.989V92.4387Z" fill="#FFCE28"/>
<path d="M229.798 100H226.269L221.645 85.7693H224.87L228.034 95.7835H228.074L231.279 85.7693H234.504L229.778 100H229.798Z" fill="#FFCE28"/>
<path d="M243.327 88.3843H238.804V85.7693H250.953V88.4046H246.47V99.9797H243.347V88.3843H243.327Z" fill="#FFCE28"/>
<path d="M266.469 99.8986V85.7085H269.531V97.2633H276.833V99.8986H266.469Z" fill="#FFCE28"/>
<path d="M286.203 88.3843H281.68V85.7693H293.83V88.4046H289.347V99.9797H286.224V88.3843H286.203Z" fill="#FFCE28"/>
<path d="M299.61 85.749H305.755C309.447 85.749 312.225 88.0803 312.225 92.7833C312.225 96.9187 310.116 99.9797 305.755 99.9797H299.61V85.749ZM302.733 97.3444H305.532C307.358 97.3444 309.082 96.2295 309.082 93.0874C309.082 90.2088 308.068 88.3843 304.964 88.3843H302.733V97.3647V97.3444Z" fill="#FFCE28"/>
</g>
<defs>
<clipPath id="clip0_129_5273">
<rect width="360.741" height="100" fill="white"/>
</clipPath>
</defs>
</svg>
